<?xml version="1.0" standalone="no"?>
<!DOCTYPE svg PUBLIC "-//W3C//DTD SVG 1.1//EN" "http://www.w3.org/Graphics/SVG/1.1/DTD/svg11.dtd" >
<svg xmlns="http://www.w3.org/2000/svg">
<metadata>
<json>
<![CDATA[
{
	"fontFamily": "Anhancericons",
	"majorVersion": 1,
	"minorVersion": 0,
	"fontURL": "http://anhancericons.blogspot.com",
	"designer": "Amrit Crome",
	"version": "Version 1.0",
	"fontId": "Anhancericons",
	"psName": "Anhancericons",
	"subFamily": "Regular",
	"fullName": "Anhancericons",
	"description": "Font generated by IcoMoon."
}
]]>
</json>
</metadata>
<defs>
<font id="Anhancericons" horiz-adv-x="1024">
<font-face units-per-em="1024" ascent="960" descent="-64" />
<missing-glyph horiz-adv-x="1024" />
<glyph unicode="&#x20;" horiz-adv-x="512" d="" />
<glyph unicode="&#x31;" glyph-name="clock-o" data-tags="clock-o" d="M512 761.6h38.4v-358.4h-275.2v44.8h236.8v313.6zM512 960c-282.77 0-512-229.23-512-512s229.23-512 512-512c282.77 0 512 229.23 512 512v0c0 282.77-229.23 512-512 512v0zM512-25.6c-261.562 0-473.6 212.038-473.6 473.6s212.038 473.6 473.6 473.6c261.562 0 473.6-212.038 473.6-473.6v0c0-261.562-212.038-473.6-473.6-473.6v0z" />
<glyph unicode="&#x41;" glyph-name="anhancer" data-tags="anhancer" d="M0 934.4v-972.8h1024v972.8zM825.6 281.6l-396.8-179.2v-70.4h-230.4v819.2h352l384-352v-307.2zM665.6 460.8l-236.8-108.8-6.4 320 243.2-211.2z" />
<glyph unicode="&#x42;" glyph-name="youtube" data-tags="youtube" d="M1004.8 691.2c-13.1 51.099-55.707 89.395-108.174 95.936l-0.626 0.064c-92.993 8.637-201.109 13.562-310.375 13.562-25.887 0-51.709-0.276-77.464-0.826l3.838 0.065c-21.912 0.485-47.736 0.762-73.625 0.762-109.264 0-217.377-4.925-324.13-14.564l13.756 1.002c-53.093-6.605-95.7-44.901-108.606-95.112l-0.194-0.888c-12.614-61.991-19.834-133.243-19.834-206.182 0-13.018 0.23-25.983 0.686-38.89l-0.052 1.871c-0.404-11.036-0.634-24-0.634-37.018 0-72.939 7.22-144.191 20.984-213.081l-1.15 6.9c13.1-51.099 55.707-89.395 108.174-95.936l0.626-0.064c92.993-8.637 201.109-13.562 310.375-13.562 25.887 0 51.709 0.276 77.464 0.826l-3.838-0.065c21.912-0.485 47.736-0.762 73.625-0.762 109.264 0 217.377 4.925 324.13 14.564l-13.756-1.002c54.728 7.466 98.042 48.616 108.663 101.582l0.137 0.818c12.503 61.72 19.659 132.665 19.659 205.282 0 11.084-0.167 22.128-0.498 33.131l0.038-1.613c0.404 11.036 0.634 24 0.634 37.018 0 72.939-7.22 144.191-20.984 213.081l1.15-6.9zM384 288v339.2l320-172.8z" />
<glyph unicode="&#x43;" glyph-name="joomla" data-tags="joomla" d="M608 224l-121.6-121.6c-40.533-40.517-96.52-65.576-158.359-65.576-21.080 0-41.479 2.912-60.818 8.355l1.578-0.379c-16.707-56.559-68.18-97.129-129.129-97.129-74.227 0-134.4 60.173-134.4 134.4 0 60.949 40.57 112.422 96.178 128.887l0.951 0.242c-5.064 17.762-7.976 38.161-7.976 59.241 0 61.84 25.059 117.827 65.576 158.36l-0.001-0.001h6.4l108.8-96h-6.4c-17.532-15.825-28.503-38.631-28.503-64 0-47.553 38.55-86.103 86.103-86.103 22.185 0 42.41 8.39 57.676 22.17l-0.076-0.067 121.6 121.6 108.8 102.4 102.4-102.4zM492.8 774.4l-102.4-102.4h-6.4c-11.584 6.504-25.425 10.334-40.16 10.334-45.95 0-83.2-37.25-83.2-83.2 0-13.064 3.011-25.425 8.377-36.427l-0.217 0.493 19.2-19.2 96-102.4 108.8-102.4-102.4-102.4-224 224c-41.369 40.669-67.004 97.229-67.004 159.776 0 22.902 3.437 45.002 9.823 65.811l-0.419-1.587c-57.477 16.105-98.925 68.029-98.925 129.634 0 74.227 60.173 134.4 134.4 134.4 63.457 0 116.643-43.979 130.741-103.119l0.184-0.914c15.699 3.816 33.722 6.004 52.256 6.004 61.671 0 117.683-24.23 159.035-63.69l-0.090 0.086zM902.4 684.8c5.967-19.222 9.404-41.322 9.404-64.224 0-62.547-25.636-119.107-66.973-159.745l-0.031-0.031h-6.4l-102.4 96h6.4c17.532 15.825 28.503 38.631 28.503 64 0 47.553-38.55 86.103-86.103 86.103-22.185 0-42.41-8.39-57.676-22.17l0.076 0.067-230.4-230.4-96 102.4 102.4 108.8 102.4 96 19.2 19.2c40.669 41.369 97.229 67.004 159.776 67.004 22.902 0 45.002-3.437 65.811-9.823l-1.587 0.419c10.433 64.732 65.901 113.577 132.777 113.577 74.227 0 134.4-60.173 134.4-134.4 0-66.876-48.845-122.344-112.806-132.674l-0.771-0.103zM889.6-64c-0.731-0.014-1.593-0.022-2.456-0.022-65.179 0-119.521 46.397-131.801 107.966l-0.143 0.857c-19.222-5.967-41.322-9.404-64.224-9.404-62.547 0-119.107 25.636-159.745 66.973l-0.031 0.031h-12.8l102.4 102.4h6.4c12.855-8.54 28.647-13.627 45.627-13.627 45.95 0 83.2 37.25 83.2 83.2 0 16.98-5.086 32.771-13.819 45.934l0.192-0.308-19.2 19.2-96 102.4-108.8 108.8 102.4 102.4 230.4-230.4c40.517-40.533 65.576-96.52 65.576-158.359 0-21.080-2.912-41.479-8.355-60.818l0.379 1.578c71.935-5.171 128.334-64.799 128.334-137.6 0-76.179-61.755-137.934-137.934-137.934-3.378 0-6.728 0.121-10.045 0.36l0.445-0.026z" />
<glyph unicode="&#x44;" glyph-name="spootify" data-tags="spootify" d="M825.6 134.4c-8.044-12.754-22.057-21.103-38.019-21.103-9.744 0-18.762 3.111-26.114 8.394l0.134-0.091c-166.4 102.4-377.6 128-633.6 70.4-6.527-3.929-14.407-6.253-22.829-6.253-24.742 0-44.8 20.058-44.8 44.8s20.058 44.8 44.8 44.8c1.277 0 2.542-0.053 3.792-0.158l-0.164 0.011c275.2 64 512 38.4 697.6-76.8 15.374-7.318 25.811-22.729 25.811-40.577 0-8.666-2.461-16.758-6.721-23.614l0.11 0.19zM915.2 332.8c-8.405-17.458-25.959-29.293-46.277-29.293-11.498 0-22.11 3.79-30.657 10.189l0.133-0.096c-131.412 75.675-288.982 120.315-456.978 120.315-92.59 0-182.013-13.56-266.392-38.802l6.57 1.687c-9.772-7.886-22.343-12.659-36.029-12.659-31.812 0-57.6 25.788-57.6 57.6s25.788 57.6 57.6 57.6c1.418 0 2.823-0.051 4.215-0.152l-0.187 0.011c86.517 25.713 185.923 40.509 288.784 40.509 190.316 0 368.802-50.653 522.711-139.212l-5.095 2.703c15.718-8.942 26.146-25.579 26.146-44.651 0-9.486-2.58-18.37-7.076-25.987l0.13 0.239zM1011.2 550.4c-14.192-17.37-35.614-28.371-59.606-28.371-13.331 0-25.869 3.397-36.795 9.371l0.401-0.201c-230.4 134.4-614.4 153.6-832 83.2-3.275-0.54-7.049-0.848-10.895-0.848-29.988 0-55.597 18.75-65.743 45.166l-0.163 0.482c-1.301 5.061-2.048 10.872-2.048 16.857 0 30.437 19.316 56.363 46.358 66.188l0.49 0.156c256 76.8 672 64 940.8-96 18.459-12.874 30.386-34.006 30.386-57.923 0-14.145-4.172-27.316-11.352-38.349l0.166 0.272z" />
<glyph unicode="&#x45;" glyph-name="linkedin" data-tags="linkedin" d="M364.8 633.6h204.8v-108.8c39.842 65.676 110.954 108.887 192.159 108.887 2.195 0 4.382-0.032 6.561-0.094l-0.32 0.007c211.2 0 256-134.4 256-307.2v-352h-211.2v313.6c0 76.8 0 172.8-108.8 172.8s-128-89.6-128-172.8v-320h-211.2zM0 633.6h217.6v-659.2h-217.6zM217.6 812.8c0-60.089-48.711-108.8-108.8-108.8s-108.8 48.711-108.8 108.8c0 60.089 48.711 108.8 108.8 108.8v0c60.089 0 108.8-48.711 108.8-108.8v0z" />
<glyph unicode="&#x46;" glyph-name="pinterest" data-tags="pinterest" d="M512 960c-280.784-2.604-507.399-230.827-507.399-511.979 0-206.921 122.748-385.172 299.401-465.911l3.198-1.309c-0.802 9.973-1.258 21.59-1.258 33.314 0 28.958 2.787 57.266 8.108 84.668l-0.45-2.782 64 275.2c-12.042 24.307-19.12 52.917-19.2 83.173v0.027c0 76.8 44.8 134.4 96 134.4 1.918 0.186 4.147 0.292 6.401 0.292 38.881 0 70.4-31.519 70.4-70.4 0-0.103 0-0.205-0.001-0.307v0.016c-11.269-68.512-26.843-128.827-47.149-186.919l2.349 7.719c-1.848-6.277-2.912-13.488-2.912-20.947 0-36.645 25.665-67.295 60-74.957l0.512-0.096h25.6c96 0 160 121.6 160 268.8-3.025 103.677-87.794 186.57-191.923 186.57-6.789 0-13.496-0.352-20.103-1.040l0.826 0.070c-3.919 0.226-8.504 0.354-13.119 0.354-129.938 0-236.075-101.902-242.856-230.151l-0.025-0.604v-12.8c-0.23-3.086-0.362-6.684-0.362-10.313 0-34.981 12.202-67.111 32.581-92.368l-0.219 0.281c4.644-4.635 7.517-11.042 7.517-18.121 0-2.669-0.408-5.242-1.166-7.661l0.049 0.181-12.8-38.4c-2.707-7.537-9.792-12.831-18.113-12.831-0.382 0-0.762 0.011-1.139 0.033l0.052-0.002c-61.965 34.374-103.212 99.407-103.212 174.074 0 6.311 0.295 12.554 0.871 18.715l-0.060-0.789c0 147.2 121.6 320 364.8 320 3.896 0.177 8.464 0.278 13.055 0.278 165.258 0 300.038-130.49 306.924-294.055l0.021-0.623c0-198.4-108.8-352-275.2-352-0.050 0-0.109 0-0.168 0-50.207 0-94.544 25.136-121.111 63.511l-0.32 0.489-32-140.8c-12.971-41.44-30.373-77.504-52.189-110.386l0.989 1.586c41.62-12.186 89.433-19.196 138.883-19.196 282.77 0 512 229.23 512 512 0 282.096-228.139 510.907-509.979 511.996h-0.104z" />
<glyph unicode="&#x47;" glyph-name="reddit" data-tags="reddit" d="M960 345.6c4.102-15.796 6.457-33.931 6.457-52.616 0-1.752-0.021-3.5-0.062-5.243l0.005 0.258c0-179.2-204.8-326.4-454.4-326.4s-454.4 147.2-454.4 332.8c0.286 18.301 2.603 35.917 6.735 52.822l-0.335-1.622c-41.271 18.132-69.571 58.65-69.571 105.778 0 63.623 51.577 115.2 115.2 115.2 35.633 0 67.488-16.178 88.619-41.591l0.152-0.188c82.542 57.174 184.017 92.58 293.555 95.979l0.845 0.021 64 294.4c2.294 8.221 9.717 14.151 18.524 14.151 2.548 0 4.98-0.496 7.204-1.397l-0.129 0.046 211.2-44.8c12.991 30.053 42.379 50.702 76.59 50.702 45.95 0 83.2-37.25 83.2-83.2s-37.25-83.2-83.2-83.2c-43.873 0-79.815 33.959-82.974 77.026l-0.016 0.273-192 44.8-64-268.8c112.587-2.49 216.401-38.019 302.694-97.228l-1.894 1.228c20.661 19.837 48.771 32.052 79.734 32.052 1.219 0 2.433-0.019 3.643-0.057l-0.177 0.004c55.916-8.549 98.252-56.304 98.252-113.947 0-40.71-21.117-76.488-52.995-96.978l-0.457-0.275zM320 249.6c45.95 0 83.2 37.25 83.2 83.2s-37.25 83.2-83.2 83.2c-45.95 0-83.2-37.25-83.2-83.2v0c0-0.073 0-0.16 0-0.247 0-45.95 37.25-83.2 83.2-83.2 2.253 0 4.484 0.090 6.692 0.265l-0.291-0.019zM704 160c-3.489 5.206-9.35 8.587-16 8.587s-12.511-3.381-15.956-8.518l-0.044-0.069c-39.956-28.367-89.726-45.348-143.462-45.348-5.819 0-11.591 0.199-17.31 0.591l0.773-0.042c-4.946-0.349-10.719-0.548-16.538-0.548-53.736 0-103.507 16.981-144.237 45.87l0.775-0.522c-3.489 5.206-9.35 8.587-16 8.587s-12.511-3.381-15.956-8.518l-0.044-0.069c-5.206-3.489-8.587-9.35-8.587-16s3.381-12.511 8.518-15.956l0.069-0.044c48.38-36.259 109.415-58.060 175.542-58.060 5.79 0 11.54 0.167 17.247 0.497l-0.789-0.036c4.918-0.293 10.669-0.46 16.458-0.46 66.127 0 127.161 21.802 176.308 58.61l-0.766-0.549c5.206 3.489 8.587 9.35 8.587 16s-3.381 12.511-8.518 15.956l-0.069 0.044zM787.2 332.8c0 45.95-37.25 83.2-83.2 83.2s-83.2-37.25-83.2-83.2c0-45.95 37.25-83.2 83.2-83.2v0c45.95 0 83.2 37.25 83.2 83.2v0z" />
<glyph unicode="&#x48;" glyph-name="tumblr" data-tags="tumblr" d="M806.4-6.4c-45.345-36.083-103.45-57.893-166.649-57.893-4.415 0-8.805 0.106-13.167 0.317l0.616-0.024c-7.687-0.745-16.618-1.17-25.649-1.17-153.685 0-278.615 123.113-281.547 276.096l-0.004 0.274v332.8h-102.4v134.4c112.305 45.029 191.545 150.067 198.365 274.396l0.035 0.804h160v-256h204.8v-153.6h-204.8v-320c-0.613-3.938-0.963-8.479-0.963-13.103 0-49.485 40.115-89.6 89.6-89.6 2.592 0 5.158 0.11 7.694 0.326l-0.331-0.023 83.2 19.2z" />
<glyph unicode="&#x49;" glyph-name="wordpress" data-tags="wordpress" d="M1024 448c0-282.77-229.23-512-512-512s-512 229.23-512 512c0 282.77 229.23 512 512 512v0c282.77 0 512-229.23 512-512v0zM998.4 448c0 268.631-217.769 486.4-486.4 486.4s-486.4-217.769-486.4-486.4c0-268.631 217.769-486.4 486.4-486.4v0c268.631 0 486.4 217.769 486.4 486.4v0zM108.8 627.2l211.2-576c-148.548 73.218-248.946 223.564-248.946 397.36 0 64.662 13.898 126.079 38.87 181.425l-1.124-2.785zM774.4 326.4l-44.8-147.2-153.6 473.6h51.2c10.604 0 19.2 8.596 19.2 19.2s-8.596 19.2-19.2 19.2h-236.8c-10.604 0-19.2-8.596-19.2-19.2s8.596-19.2 19.2-19.2h44.8l64-185.6-96-288-160 473.6h51.2c10.604 0 19.2 8.596 19.2 19.2s-8.596 19.2-19.2 19.2h-147.2c80.483 118.054 214.323 194.554 366.031 194.554 112.721 0 215.578-42.234 293.61-111.74l-0.441 0.386h-6.4c-42.415 0-76.8-34.385-76.8-76.8v0c5.528-39.397 21.532-74.304 45.075-102.742l-0.275 0.342c23.355-34.132 37.591-76.126 38.397-121.397l0.003-0.203c-4.432-54.045-15.797-104.054-33.267-151.096l1.267 3.896zM652.8 38.4v0c-43.805-16.108-94.389-25.48-147.146-25.6h-0.054l-121.6 19.2 134.4 384zM953.6 448c0-0.209 0.001-0.457 0.001-0.705 0-160.236-86.598-300.247-215.547-375.783l-2.054-1.112 134.4 390.4c18.687 47.308 30.278 102.053 31.983 159.282l0.017 0.718c-1.004 16.465-3.283 31.796-6.768 46.663l0.368-1.863c36.22-62.127 57.602-136.754 57.602-216.376 0-0.43-0.001-0.86-0.002-1.29v0.066z" />
<glyph unicode="&#x4a;" glyph-name="whatsapp" data-tags="whatsapp" d="M1017.6 460.8c-2.407-273.866-224.976-494.948-499.182-494.948-86.754 0-168.339 22.13-239.418 61.052l2.6-1.304-275.2-89.6 89.6 268.8c-44.227 73.021-70.4 161.254-70.4 255.599 0 275.701 223.499 499.2 499.2 499.2 275.56 0 498.972-223.272 499.2-498.778v-0.021zM934.4 460.8c0.031 1.885 0.048 4.108 0.048 6.336 0 229.75-186.25 416-416 416s-416-186.25-416-416c0-94.093 31.239-180.889 83.911-250.584l-0.759 1.048-51.2-153.6 160 51.2c63.373-41.064 140.85-65.476 224.029-65.476 228.019 0 413.191 183.454 415.968 410.814l0.003 0.262zM774.4 332.8c0.516-1.921 0.813-4.126 0.813-6.4s-0.297-4.479-0.853-6.579l0.040 0.179c-1.251-18.793-5.839-36.218-13.178-52.113l0.378 0.913c-24.057-38.655-66.312-64.002-114.488-64.002-0.25 0-0.501 0.001-0.751 0.002h0.039c-47.686 6.616-90.831 20.091-130.531 39.519l2.531-1.119c-84.942 50.759-152.617 122.541-197.039 208.311l-1.361 2.889c-26.045 35.59-42.496 79.67-44.78 127.462l-0.020 0.538c-0.073 1.699-0.115 3.692-0.115 5.694 0 40.676 17.249 77.324 44.831 103.028l0.084 0.078 38.4 12.8h25.6c19.2 0 19.2-6.4 25.6-25.6s38.4-96 38.4-102.4-44.8-51.2-44.8-70.4v-12.8c18.922-34.73 42.402-64.332 70.107-89.34l0.293-0.26c29.31-25.634 63.121-47.133 99.912-63.042l2.488-0.958h12.8c19.2 0 51.2 64 70.4 64z" />
<glyph unicode="&#x4b;" glyph-name="msoffice" data-tags="msoffice" d="M940.8 19.2v0 851.2l-307.2 89.6-550.4-204.8v-614.4l192 70.4v499.2l358.4 89.6v-736l-550.4 76.8 550.4-204.8 307.2 83.2z" />
<glyph unicode="&#x4c;" glyph-name="home" data-tags="home" d="M409.6 12.8v307.2h204.8v-307.2h256v409.6h153.6l-512 460.8-512-460.8h153.6v-409.6z" />
<glyph unicode="&#x4d;" glyph-name="html5" data-tags="html5" d="M64 960l83.2-921.6 364.8-102.4 364.8 102.4 83.2 921.6h-896zM780.8 659.2h-428.8l12.8-115.2h409.6l-32-345.6-230.4-64-230.4 64-12.8 172.8h108.8v-89.6l128-32h6.4l128 32 12.8 147.2h-390.4l-32 339.2h563.2l-12.8-115.2z" />
<glyph unicode="&#x4e;" glyph-name="info" data-tags="info" d="M512 960c-282.77 0-512-229.23-512-512s229.23-512 512-512c282.77 0 512 229.23 512 512v0c0 282.77-229.23 512-512 512v0zM563.2 192h-102.4v307.2h102.4zM563.2 601.6h-102.4v102.4h102.4z" />
<glyph unicode="&#x4f;" glyph-name="microphone" data-tags="microphone" d="M864 524.8v-76.8c0.046-2.093 0.073-4.56 0.073-7.033 0-88.753-34.087-169.545-89.884-229.998l0.211 0.231c-56.019-63.295-134.314-105.765-222.497-115.071l-1.503-0.129v-83.2h160l25.6-12.8c7.99-7.071 13.001-17.35 13.001-28.8s-5.011-21.729-12.96-28.765l-0.041-0.035-25.6-12.8h-396.8l-25.6 12.8c-7.99 7.071-13.001 17.35-13.001 28.8s5.011 21.729 12.96 28.765l0.041 0.035 25.6 12.8h160v83.2c-89.686 9.435-167.981 51.905-223.683 114.835l-0.317 0.365c-55.586 60.222-89.673 141.014-89.673 229.767 0 2.473 0.026 4.939 0.079 7.4l-0.006-0.367v76.8c0.862 10.232 5.618 19.212 12.761 25.566l0.039 0.034 25.6 12.8 25.6-12.8c7.182-6.388 11.938-15.368 12.79-25.459l0.010-0.141v-76.8c0-0.095 0-0.208 0-0.32 0-75.563 31.94-143.666 83.055-191.545l0.145-0.134c48.014-51.26 116.117-83.2 191.68-83.2 0.113 0 0.225 0 0.338 0h-0.018c0.095 0 0.208 0 0.32 0 75.563 0 143.666 31.94 191.545 83.055l0.134 0.145c51.26 48.014 83.2 116.117 83.2 191.68 0 0.113 0 0.225 0 0.338v-0.018 76.8c0.862 10.232 5.618 19.212 12.761 25.566l0.039 0.034 25.6 12.8 25.6-12.8c7.182-6.388 11.938-15.368 12.79-25.459l0.010-0.141zM710.4 761.6v-313.6c0-109.573-88.827-198.4-198.4-198.4v0c-109.573 0-198.4 88.827-198.4 198.4v0 313.6c-0.022 1.086-0.035 2.367-0.035 3.651 0 53.711 22.055 102.272 57.603 137.118l0.032 0.031c34.878 35.58 83.438 57.635 137.149 57.635 1.284 0 2.564-0.013 3.842-0.038l-0.191 0.003c1.086 0.022 2.367 0.035 3.651 0.035 53.711 0 102.272-22.055 137.118-57.603l0.031-0.032c35.58-34.878 57.635-83.438 57.635-137.149 0-1.284-0.013-2.564-0.038-3.842l0.003 0.191z" />
<glyph unicode="&#x50;" glyph-name="plus-o" data-tags="plus-o" d="M544 480h480v-64h-480v-480h-64v480l-480-6.4v70.4h480v480h64v-480z" />
<glyph unicode="&#x51;" glyph-name="print" data-tags="print" d="M256 160v-192h512v320h-512zM320 224h384v-64h-384zM320 96h384v-64h-384zM768 736v192h-512v-320h512v128zM896 736h-64v-192h-640v192h-64c-68.084-6.13-121.87-59.916-127.96-127.456l-0.040-0.544v-320c6.13-68.084 59.916-121.87 127.456-127.96l0.544-0.040h64v192h640v-192h64c68.084 6.13 121.87 59.916 127.96 127.456l0.040 0.544v320c-6.13 68.084-59.916 121.87-127.456 127.96l-0.544 0.040z" />
<glyph unicode="&#x52;" glyph-name="preview" data-tags="preview" d="M998.4 121.6l-19.2 12.8c-6.4 6.4-64 147.2-300.8 172.8l-179.2 12.8v-172.8c0.020-0.325 0.031-0.705 0.031-1.087 0-8.321-5.294-15.406-12.697-18.071l-0.134-0.042h-19.2l-454.4 300.8h-12.8c-3.744 3.512-6.077 8.492-6.077 14.015 0 8.189 5.127 15.181 12.346 17.94l0.132 0.044 460.8 313.6h25.6c7.537-2.707 12.831-9.792 12.831-18.113 0-0.382-0.011-0.762-0.033-1.139l0.002 0.052v-160c102.4-12.8 524.8-89.6 524.8-448 0.008-0.241 0.013-0.525 0.013-0.81 0-11.869-8.077-21.851-19.034-24.75l-0.179-0.040z" />
<glyph unicode="&#x53;" glyph-name="next" data-tags="next" d="M19.2 121.6c-11.136 2.939-19.213 12.922-19.213 24.79 0 0.285 0.005 0.568 0.014 0.851l-0.001-0.041c0 352 422.4 428.8 524.8 448v160c-0.020 0.325-0.031 0.705-0.031 1.087 0 8.321 5.294 15.406 12.697 18.071l0.134 0.042h25.6l454.4-307.2c7.351-2.804 12.477-9.796 12.477-17.985 0-5.524-2.333-10.503-6.067-14.006l-0.010-0.010h-6.4l-460.8-313.6h-19.2c-7.537 2.707-12.831 9.792-12.831 18.113 0 0.382 0.011 0.762 0.033 1.139l-0.002-0.052v179.2l-179.2-12.8c-236.8-25.6-300.8-166.4-300.8-172.8v0l-19.2-12.8z" />
<glyph unicode="&#x54;" glyph-name="search-o" data-tags="search-o" d="M1017.6-12.8l-249.6 249.6c65.79 75.822 105.883 175.487 105.883 284.517 0 240.354-194.846 435.2-435.2 435.2s-435.2-194.846-435.2-435.2c0-240.354 194.846-435.2 435.2-435.2 109.030 0 208.695 40.094 285.056 106.341l-0.54-0.458 249.6-249.6h44.8c5.656 5.767 9.147 13.676 9.147 22.4s-3.491 16.633-9.152 22.405l0.005-0.005zM64 524.8c0 208.543 169.057 377.6 377.6 377.6s377.6-169.057 377.6-377.6c0-208.543-169.057-377.6-377.6-377.6v0c-208.543 0-377.6 169.057-377.6 377.6v0z" />
<glyph unicode="&#x55;" glyph-name="share" data-tags="share" d="M819.2 620.8c95.435 0 172.8 77.365 172.8 172.8s-77.365 172.8-172.8 172.8c-95.435 0-172.8-77.365-172.8-172.8v0 0c0-95.435 77.365-172.8 172.8-172.8v0zM819.2 281.6c-95.435 0-172.8-77.365-172.8-172.8s77.365-172.8 172.8-172.8c95.435 0 172.8 77.365 172.8 172.8v0c0 95.435-77.365 172.8-172.8 172.8v0zM467.2 371.2c8.599 22.839 13.577 49.238 13.577 76.8s-4.978 53.961-14.084 78.347l0.506-1.547 198.4 121.6c-18.914 19.656-34.095 43.060-44.303 68.968l-0.497 1.432-198.4-115.2c-40.934 43.306-98.775 70.26-162.911 70.26-123.712 0-224-100.288-224-224s100.288-224 224-224c57.839 0 110.559 21.922 150.303 57.91l-0.191-0.17 12.8 12.8 198.4-121.6c10.705 27.34 25.886 50.744 44.865 70.468l-0.065-0.068z" />
<glyph unicode="&#x56;" glyph-name="star" data-tags="star" d="M198.4-64l313.6 243.2 320-243.2-121.6 390.4 313.6 243.2h-390.4l-121.6 390.4-121.6-390.4h-390.4l320-243.2zM288 473.6h172.8l19.2 70.4 32 89.6 32-96 19.2-70.4h179.2l-89.6-64-51.2-38.4 19.2-64 32-102.4-83.2 57.6-57.6 44.8-57.6-44.8-76.8-64 32 102.4 19.2 64-51.2 38.4z" />
<glyph unicode="&#x57;" glyph-name="tdots" data-tags="tdots" d="M646.4 448c0-74.227-60.173-134.4-134.4-134.4s-134.4 60.173-134.4 134.4c0 74.227 60.173 134.4 134.4 134.4s134.4-60.173 134.4-134.4zM646.4 787.2c0-74.227-60.173-134.4-134.4-134.4s-134.4 60.173-134.4 134.4c0 74.227 60.173 134.4 134.4 134.4s134.4-60.173 134.4-134.4zM646.4 108.8c0-74.227-60.173-134.4-134.4-134.4s-134.4 60.173-134.4 134.4c0 74.227 60.173 134.4 134.4 134.4s134.4-60.173 134.4-134.4z" />
<glyph unicode="&#x58;" glyph-name="twitter" data-tags="twitter" d="M320 32c328.72 0 595.2 266.48 595.2 595.2v0 25.6c42.836 29.873 78.927 65.964 107.881 107.41l0.919 1.39c-35.476-15.818-76.619-27.122-119.744-31.835l-1.856-0.165c42.137 26.541 73.762 66.461 89.178 113.706l0.422 1.494c-38.876-21.19-84.094-36.864-131.996-44.485l-2.404-0.315c-38.48 39.937-92.428 64.741-152.168 64.741-116.643 0-211.2-94.557-211.2-211.2 0-16.139 1.81-31.855 5.239-46.956l-0.27 1.415c-173.196 9.602-325.445 91.872-427.976 216.568l-0.824 1.032c-18.164-30.54-28.9-67.337-28.9-106.641 0-72.494 36.524-136.457 92.175-174.491l0.726-0.468c-35.315 0.843-68.26 10.226-97.087 26.151l1.087-0.551c1.435-101.871 74.777-186.2 171.482-204.592l1.318-0.208c-18.452-5.841-39.673-9.207-61.68-9.207-12.121 0-24.003 1.021-35.565 2.982l1.245-0.175c27.681-85.174 105.779-145.899 198.247-147.198l0.153-0.002c-70.948-55.868-161.601-89.606-260.135-89.606-0.797 0-1.593 0.002-2.388 0.007l0.123-0.001h-51.2c90.337-59.445 200.914-95.142 319.776-95.999l0.224-0.001z" />
<glyph unicode="&#x59;" glyph-name="warning" data-tags="warning" d="M569.6 870.4c-10.607 21.542-32.403 36.103-57.6 36.103s-46.993-14.561-57.433-35.728l-0.167-0.375-441.6-780.8c-5.391-9.179-8.574-20.218-8.574-32s3.184-22.821 8.738-32.302l-0.164 0.302c11.267-19.285 31.868-32.036 55.447-32.036 0.757 0 1.511 0.013 2.262 0.039l-0.109-0.003h889.6c0.642-0.023 1.396-0.036 2.153-0.036 23.579 0 44.18 12.751 55.283 31.734l0.164 0.303c4.849 9.305 7.693 20.32 7.693 32s-2.844 22.695-7.878 32.391l0.185-0.391zM576 121.6h-128v134.4h128zM576 320h-128v256h128z" />
<glyph unicode="&#x5a;" glyph-name="win10" data-tags="win10" d="M422.4 876.8v-403.2h-422.4v345.6zM422.4 416v-396.8l-422.4 57.6v345.6zM1024 960v-486.4h-556.8v409.6zM1024 422.4v-486.4l-556.8 76.8v409.6z" />
<glyph unicode="&#x62;" glyph-name="android" data-tags="android" d="M204.8 563.2v-262.4c0-35.346-28.654-64-64-64s-64 28.654-64 64v0 262.4c0 35.346 28.654 64 64 64s64-28.654 64-64v0zM793.6 640h-563.2c1.823 97.567 57.954 181.608 139.357 223.328l1.443 0.672-44.8 83.2c-3.535 0-6.4 2.865-6.4 6.4s2.865 6.4 6.4 6.4v0h12.8l44.8-83.2c36.707 16.737 79.614 26.492 124.8 26.492s88.093-9.756 126.73-27.276l-1.93 0.783 44.8 76.8h12.8c3.535 0 6.4-2.865 6.4-6.4s-2.865-6.4-6.4-6.4v0l-44.8-83.2c83.648-39.767 141.643-121.305 147.168-216.913l0.032-0.687zM793.6 211.2c0.204-1.919 0.321-4.147 0.321-6.401 0-35.346-28.654-64-64-64-0.113 0-0.226 0-0.338 0.001h-44.783v-140.8c0-35.346-28.654-64-64-64s-64 28.654-64 64v0 140.8h-89.6v-140.8c0-35.346-28.654-64-64-64s-64 28.654-64 64v0 140.8h-38.4c-38.881 0-70.4 31.519-70.4 70.4v0 403.2h563.2zM409.6 768c0 14.138-11.462 25.6-25.6 25.6s-25.6-11.462-25.6-25.6c0-14.138 11.462-25.6 25.6-25.6v0c14.138 0 25.6 11.462 25.6 25.6v0zM665.6 768c0 14.138-11.462 25.6-25.6 25.6s-25.6-11.462-25.6-25.6c0-14.138 11.462-25.6 25.6-25.6v0c14.138 0 25.6 11.462 25.6 25.6v0zM947.2 307.2c0-35.346-28.654-64-64-64s-64 28.654-64 64v0 256c0 35.346 28.654 64 64 64s64-28.654 64-64v0z" />
<glyph unicode="&#x63;" glyph-name="arrowbottom" data-tags="arrowbottom" d="M448 960v-780.8l-358.4 358.4-89.6-89.6 512-512 512 512-89.6 89.6-358.4-358.4v780.8z" />
<glyph unicode="&#x64;" glyph-name="arrowleft" data-tags="arrowleft" d="M1024 512h-780.8l358.4 358.4-89.6 89.6-512-512 512-512 89.6 89.6-358.4 358.4h780.8z" />
<glyph unicode="&#x65;" glyph-name="arrowright" data-tags="arrowright" d="M0 384h780.8l-358.4-358.4 89.6-89.6 512 512-512 512-89.6-89.6 358.4-358.4h-780.8z" />
<glyph unicode="&#x66;" glyph-name="arrowtop" data-tags="arrowtop" d="M576-64v780.8l358.4-358.4 89.6 89.6-512 512-512-512 89.6-89.6 358.4 358.4v-780.8z" />
<glyph unicode="&#x67;" glyph-name="bars" data-tags="bars" d="M89.6 147.2h844.8v102.4h-844.8zM89.6 396.8h844.8v102.4h-844.8zM89.6 748.8v-102.4h844.8v102.4z" />
<glyph unicode="&#x68;" glyph-name="bars-o" data-tags="bars-o" d="M0 774.4v-38.4h1024v38.4zM0 467.2v-38.4h1024v38.4zM0 160v-38.4h1024v38.4z" />
<glyph unicode="&#x69;" glyph-name="cross-o" data-tags="cross-o" d="M576 448l448-448-64-64-448 448-448-448-64 64 448 448-448 448 64 64 448-448 448 448 64-64-448-448z" />
<glyph unicode="&#x6a;" glyph-name="code" data-tags="code" d="M0 403.2l371.2-166.4v108.8l-256 102.4 256 96v108.8l-371.2-160v-89.6zM403.2 166.4h76.8l140.8 563.2h-83.2l-134.4-563.2zM652.8 544l256-96-256-102.4v-108.8l371.2 166.4v83.2l-371.2 166.4v-108.8z" />
<glyph unicode="&#x6b;" glyph-name="bing" data-tags="bing" d="M153.6 960l204.8-70.4v-723.2l288 166.4-140.8 64-89.6 224 454.4-160v-230.4l-512-294.4-204.8 115.2z" />
<glyph unicode="&#x6c;" glyph-name="behance" data-tags="behance" d="M921.6 678.4h-256v64h256v-64zM499.2 416c16.154-25.194 25.751-55.936 25.751-88.92 0-2.49-0.055-4.967-0.163-7.431l0.012 0.351c0.111-2.4 0.174-5.215 0.174-8.044 0-34.802-9.579-67.366-26.243-95.201l0.469 0.845c-11.879-20.148-26.824-37.133-44.408-50.904l-0.392-0.296c-19.765-15.224-43.462-26.394-69.276-31.803l-1.124-0.197h-384v633.6h307.2c4.302 0.332 9.316 0.521 14.374 0.521 60.897 0 115.386-27.437 151.781-70.623l0.245-0.299c19.978-26.407 32-59.8 32-96v0c0.094-1.925 0.148-4.181 0.148-6.449 0-34.125-12.14-65.414-32.336-89.785l0.188 0.234-51.2-38.4c31.485-8.356 57.912-26.473 76.551-50.86l0.249-0.34zM147.2 518.4h134.4c3.964-0.436 8.561-0.684 13.215-0.684 20.843 0 40.523 4.982 57.913 13.82l-0.728-0.336c15.95 10.419 26.343 28.186 26.343 48.381 0 3.255-0.27 6.448-0.789 9.556l0.046-0.337c0.19 1.756 0.298 3.793 0.298 5.855 0 22.601-13.017 42.162-31.964 51.595l-0.335 0.151-83.2 6.4h-115.2zM390.4 332.8c0.254 2.247 0.4 4.852 0.4 7.491 0 27.359-15.606 51.072-38.402 62.725l-0.398 0.185-64 12.8h-140.8v-172.8h134.4l64 12.8c26.858 14.164 44.853 41.898 44.853 73.836 0 1.042-0.019 2.080-0.057 3.113l0.004-0.149zM1024 435.2c1.064-13.409 1.67-29.034 1.67-44.8s-0.606-31.39-1.797-46.851l0.127 2.051h-332.8c-0.179-2.338-0.281-5.062-0.281-7.811 0-36.154 17.634-68.189 44.771-87.973l0.31-0.215c18.111-11.763 40.192-18.878 63.915-19.199l0.085-0.001c1.249-0.055 2.714-0.086 4.186-0.086 22.459 0 43.229 7.23 60.11 19.49l-0.296-0.204 25.6 32h121.6c-5.725-33.1-21.8-61.727-44.714-83.121l-0.086-0.079c-40.426-39.896-95.992-64.536-157.313-64.536-5.45 0-10.854 0.195-16.206 0.577l0.719-0.041c-58.731 1.449-112.172 22.967-153.995 57.921l0.395-0.321c-43.713 40.982-70.947 99.089-70.947 163.557 0 5.505 0.199 10.963 0.589 16.368l-0.042-0.725c-0.184 3.58-0.288 7.772-0.288 11.989 0 64.423 24.407 123.146 64.479 167.425l-0.191-0.214c39.436 39.732 94.075 64.328 154.458 64.328 4.201 0 8.374-0.119 12.516-0.354l-0.574 0.026c2.929 0.117 6.367 0.184 9.821 0.184 35.684 0 69.704-7.123 100.716-20.024l-1.737 0.64c32.149-16.061 58.247-40.105 76.339-69.592l0.461-0.808c19.284-27.093 32.855-59.575 38.243-94.753l0.157-1.247zM902.4 422.4c-1.13 27.806-13.182 52.594-31.952 70.355l-0.048 0.045c-17.962 15.915-41.731 25.634-67.77 25.634-0.925 0-1.847-0.012-2.766-0.037l0.136 0.003c-1.491 0.083-3.237 0.13-4.993 0.13-25.3 0-48.315-9.787-65.464-25.782l0.057 0.052c-17.439-18.673-29.085-42.959-31.954-69.867l-0.046-0.533h204.8z" />
<glyph unicode="&#x6d;" glyph-name="bitcoin" data-tags="bitcoin" d="M742.4 486.4c78.371-11.212 137.952-77.885 137.952-158.474 0-11.876-1.294-23.449-3.748-34.587l0.196 1.061c-12.8-147.2-121.6-192-281.6-198.4v-160h-96v153.6h-70.4v-153.6h-96v160h-192l19.2 115.2h70.4c1.926-0.412 4.139-0.648 6.407-0.648 17.673 0 32 14.327 32 32 0 0.228-0.002 0.455-0.007 0.682l0.001-0.034v416c-3.084 25.599-24.674 45.247-50.853 45.247-2.379 0-4.721-0.162-7.014-0.476l0.266 0.030h-70.4v102.4h192v153.6h96v-153.6h70.4v153.6h96v-153.6c121.6-12.8 217.6-44.8 230.4-160 1.509-7.914 2.372-17.017 2.372-26.322 0-58.94-34.64-109.788-84.673-133.298l-0.9-0.38zM428.8 697.6v-192c51.2 0 217.6-12.8 217.6 96s-166.4 96-217.6 96zM428.8 416v-204.8c64 0 262.4-12.8 262.4 102.4s-198.4 102.4-262.4 102.4z" />
<glyph unicode="&#x6e;" glyph-name="blogger" data-tags="blogger" d="M960 576h-64c-35.346 0-64 28.654-64 64v0c0 176.731-143.269 320-320 320v0h-192c-176.731 0-320-143.269-320-320v0-384c0-176.731 143.269-320 320-320v0h384c176.731 0 320 143.269 320 320v0 256c0 35.346-28.654 64-64 64v0zM313.6 704h230.4c35.346 0 64-28.654 64-64s-28.654-64-64-64v0h-230.4c-35.346 0-64 28.654-64 64s28.654 64 64 64v0zM710.4 192h-390.4c-35.346 0-64 28.654-64 64s28.654 64 64 64v0h390.4c25.777-8.659 44.016-32.6 44.016-60.8s-18.239-52.141-43.565-60.668l-0.451-0.132z" />
<glyph unicode="&#x6f;" glyph-name="Bufferapp" data-tags="Bufferapp" d="M38.4 697.6l467.2-217.6h19.2l460.8 224c5.366 3.465 8.868 9.415 8.868 16.183 0 3.461-0.916 6.707-2.518 9.511l0.050-0.094h-6.4l-467.2 230.4h-12.8l-467.2-224c-5.366-3.465-8.868-9.415-8.868-16.183 0-3.461 0.916-6.707 2.518-9.511l-0.050 0.094zM38.4 428.8l460.8-224h19.2l460.8 224c5.366 3.465 8.868 9.415 8.868 16.183 0 3.461-0.916 6.707-2.518 9.511l0.050-0.094h-6.4l-96 57.6-307.2-147.2c-18.704-9.237-40.721-14.641-64-14.641s-45.296 5.404-64.865 15.025l0.865-0.384-307.2 147.2-102.4-44.8c-5.366-3.465-8.868-9.415-8.868-16.183 0-3.461 0.916-6.707 2.518-9.511l-0.050 0.094h6.4zM979.2 192l-96 44.8-307.2-147.2c-18.704-9.237-40.721-14.641-64-14.641s-45.296 5.404-64.865 15.025l0.865-0.384-307.2 153.6-96-44.8c-5.366-3.465-8.868-9.415-8.868-16.183 0-3.461 0.916-6.707 2.518-9.511l-0.050 0.094 467.2-236.8h19.2l460.8 224c5.366 3.465 8.868 9.415 8.868 16.183 0 3.461-0.916 6.707-2.518 9.511l0.050-0.094h-6.4z" />
<glyph unicode="&#x70;" glyph-name="codepen" data-tags="codepen" d="M1024 294.4c0.019-0.481 0.029-1.047 0.029-1.615 0-15.174-7.544-28.586-19.086-36.69l-0.143-0.095-467.2-313.6h-51.2l-467.2 313.6c-11.685 8.199-19.229 21.611-19.229 36.785 0 0.568 0.011 1.133 0.032 1.696l-0.002-0.081v307.2c-0.019 0.481-0.029 1.047-0.029 1.615 0 15.174 7.544 28.586 19.086 36.69l0.143 0.095 467.2 313.6h51.2l467.2-313.6c11.685-8.199 19.229-21.611 19.229-36.785 0-0.568-0.011-1.133-0.032-1.696l0.002 0.081zM198.4 448l-115.2 76.8v-153.6zM467.2 627.2v204.8l-345.6-230.4 153.6-102.4zM467.2 64v204.8l-192 128-153.6-102.4zM665.6 448l-153.6 102.4-160-102.4 160-102.4zM896 601.6l-339.2 230.4v-204.8l192-128zM896 288l-153.6 108.8-192-128v-204.8zM934.4 371.2v153.6l-108.8-76.8z" />
<glyph unicode="&#x71;" glyph-name="comments" data-tags="comments" d="M921.6 960h-819.2c-0.059 0-0.13 0-0.2 0-56.554 0-102.4-45.846-102.4-102.4 0-2.252 0.073-4.487 0.216-6.702l-0.016 0.302v-614.4c0-56.554 45.846-102.4 102.4-102.4v0h716.8l204.8-198.4v915.2c0.128 1.914 0.2 4.148 0.2 6.4 0 56.554-45.846 102.4-102.4 102.4-0.070 0-0.141 0-0.211 0h0.011zM819.2 339.2h-614.4v102.4h614.4zM819.2 492.8h-614.4v102.4h614.4zM819.2 646.4h-614.4v108.8h614.4z" />
<glyph unicode="&#x72;" glyph-name="delicious" data-tags="delicious" d="M0 960v-1024h1024v1024zM512 0v448h-448v448h448v-448h448v-448z" />
<glyph unicode="&#x73;" glyph-name="devianart" data-tags="devianart" d="M819.2 755.2l12.8 19.2v185.6h-185.6l-19.2-19.2-89.6-166.4-25.6-19.2h-313.6v-256h172.8l12.8-19.2-179.2-339.2-12.8-19.2v-185.6h192l19.2 19.2 89.6 166.4 25.6 19.2h313.6v256h-172.8l-19.2 19.2 179.2 339.2z" />
<glyph unicode="&#x74;" glyph-name="digg" data-tags="digg" d="M755.2 614.4v-345.6h166.4v-38.4h-166.4v-83.2h268.8v467.2zM448 614.4v-345.6h166.4v-38.4h-166.4v-83.2h268.8v467.2zM166.4 755.2v-140.8h-166.4v-345.6h268.8v486.4zM409.6 614.4h-102.4v-345.6h102.4zM921.6 345.6h-64v185.6h64zM166.4 345.6h-64v185.6h64zM614.4 345.6h-64v185.6h64zM409.6 755.2h-102.4v-102.4h102.4z" />
<glyph unicode="&#x75;" glyph-name="facebook" data-tags="facebook" d="M966.4 960h-908.8c-31.812 0-57.6-25.788-57.6-57.6v0-908.8c0-31.812 25.788-57.6 57.6-57.6v0h486.4v396.8h-128v153.6h128v115.2c-0.669 5.915-1.050 12.772-1.050 19.718 0 102.504 83.096 185.6 185.6 185.6 4.874 0 9.705-0.188 14.484-0.557l-0.634 0.039h121.6v-147.2h-83.2c-64 0-76.8-32-76.8-76.8v-96h153.6l-19.2-153.6h-134.4v-396.8h262.4c31.812 0 57.6 25.788 57.6 57.6v908.8c0 31.812-25.788 57.6-57.6 57.6v0z" />
<glyph unicode="&#x76;" glyph-name="github" data-tags="github" d="M1024 435.2c-1.047-223.419-143.266-413.352-341.99-485.259l-3.61-1.141c-3.731-2.247-8.236-3.577-13.051-3.577-14.138 0-25.6 11.462-25.6 25.6 0 1.262 0.091 2.502 0.268 3.715l-0.016-0.138v140.8c0.176 2.58 0.277 5.591 0.277 8.626 0 33.443-12.215 64.033-32.427 87.553l0.15-0.178c115.2 12.8 230.4 57.6 230.4 249.6 0.068 1.875 0.107 4.077 0.107 6.288 0 49.715-19.547 94.865-51.374 128.183l0.068-0.071c7.461 17.835 11.796 38.559 11.796 60.295 0 27.090-6.732 52.607-18.615 74.971l0.42-0.866c-44.8 19.2-140.8-44.8-140.8-44.8l-128 12.8-128-12.8s-96 64-140.8 51.2c-8.211-23.354-12.955-50.281-12.955-78.316 0-19.898 2.39-39.238 6.897-57.748l-0.342 1.664c-31.828-36.767-51.22-85.061-51.22-137.884 0-1.025 0.007-2.049 0.022-3.071l-0.002 0.155c0-198.4 121.6-236.8 230.4-249.6-16.15-19.362-27.493-43.273-31.881-69.539l-0.119-0.861c-15.324-9.633-33.956-15.348-53.923-15.348-41.241 0-76.787 24.38-93.014 59.513l-0.263 0.635c-14.101 29.324-42.906 49.56-76.594 51.192l-0.206 0.008c-51.2 0-6.4-32-6.4-32s57.6-70.4 57.6-70.4c32-96 172.8-64 172.8-64v-96c0-12.8-6.4-32-38.4-25.6-202.334 73.048-344.553 262.981-345.6 486.272v0.128c0 282.77 229.23 512 512 512s512-229.23 512-512v0zM192 224h-6.4c0-3.535 2.865-6.4 6.4-6.4v0h6.4c-3.535 0-6.4 2.865-6.4 6.4v0zM217.6 198.4c-6.4 6.4-6.4 6.4-12.8 0v-12.8c6.4-6.4 6.4-6.4 12.8 0zM236.8 172.8c0 6.4-6.4 6.4-12.8 6.4s-6.4-6.4 0-12.8h12.8zM262.4 147.2c-6.4 6.4-12.8 6.4-12.8 0s0-6.4 0-12.8 12.8-6.4 12.8 0 0 6.4 0 12.8zM294.4 128c-6.4 0-12.8 0-12.8-6.4s0-6.4 6.4-12.8 12.8 0 12.8 6.4zM332.8 121.6h-12.8c0-6.4 6.4-6.4 12.8-6.4v0zM371.2 128c-6.4 0-12.8-6.4-6.4-12.8s6.4-6.4 12.8-6.4 12.8 6.4 6.4 6.4z" />
<glyph unicode="&#x77;" glyph-name="googleplus" data-tags="googleplus" d="M326.4 492.8v-108.8h185.6c-15.322-81.041-85.571-141.511-169.944-141.511-5.512 0-10.964 0.258-16.345 0.763l0.688-0.052c-113.108 0-204.8 91.692-204.8 204.8s91.692 204.8 204.8 204.8v0c49.661 0 94.766-19.504 128.074-51.27l-0.074 0.070 89.6 89.6c-55.723 51.59-130.559 83.237-212.786 83.237-1.693 0-3.382-0.013-5.069-0.040l0.254 0.003c-180.266 0-326.4-146.134-326.4-326.4s146.134-326.4 326.4-326.4v0c4.009-0.191 8.708-0.3 13.433-0.3 166.127 0 300.8 134.673 300.8 300.8 0 6.861-0.23 13.668-0.682 20.414l0.049-0.914c-0.733 18.568-3.027 36.15-6.767 53.192l0.367-1.992zM1024 505.6h-96v96h-96v-96h-96v-96h96v-96h96v96h96z" />
<glyph unicode="&#x78;" glyph-name="instagram" data-tags="instagram" d="M512 710.4c-144.92 0-262.4-117.48-262.4-262.4s117.48-262.4 262.4-262.4c144.92 0 262.4 117.48 262.4 262.4v0c0 144.92-117.48 262.4-262.4 262.4v0zM512 275.2c-91.847 0.070-166.277 74.543-166.277 166.4 0 91.9 74.5 166.4 166.4 166.4 89.649 0 162.74-70.895 166.267-159.68l0.010-0.32c0.078-1.909 0.123-4.149 0.123-6.4 0-91.9-74.5-166.4-166.4-166.4-0.043 0-0.087 0-0.13 0h0.007zM857.6 729.6c0-31.812-25.788-57.6-57.6-57.6s-57.6 25.788-57.6 57.6c0 31.812 25.788 57.6 57.6 57.6s57.6-25.788 57.6-57.6zM755.2 960h-486.4c-0.023 0-0.049 0-0.076 0-148.454 0-268.8-120.346-268.8-268.8 0-2.251 0.028-4.495 0.083-6.732l-0.006 0.332v-486.4c0-148.454 120.346-268.8 268.8-268.8v0h486.4c148.454 0 268.8 120.346 268.8 268.8v0 486.4c0.049 1.906 0.076 4.15 0.076 6.4 0 148.454-120.346 268.8-268.8 268.8-0.027 0-0.054 0-0.081 0h0.004zM940.8 243.2c0-127.246-103.154-230.4-230.4-230.4v0h-403.2c-124.463 3.567-224 105.315-224 230.311 0 0.031 0 0.062 0 0.094v-0.005 403.2c0 0.026 0 0.058 0 0.089 0 124.996 99.537 226.744 223.672 230.304l0.328 0.007h403.2c0.026 0 0.058 0 0.089 0 124.996 0 226.744-99.537 230.304-223.672l0.007-0.328z" />
<glyph unicode="&#x79;" glyph-name="vk" data-tags="vk" d="M940.8 544c-102.4-134.4-115.2-121.6-32-204.8 40.363-32.246 74.38-70.337 101.304-113.324l1.096-1.876s32-57.6-38.4-57.6h-134.4c-1.927-0.115-4.181-0.181-6.449-0.181-23.837 0-45.983 7.24-64.36 19.641l0.409-0.26c-51.2 32-96 128-134.4 115.2s-38.4-12.8-38.4-96c0.137-1.216 0.215-2.626 0.215-4.054 0-8.043-2.473-15.508-6.699-21.678l0.085 0.131-25.6-12.8h-64c-134.4-6.4-256 115.2-256 115.2-96.34 113.298-176.183 244.538-233.428 387.277l-3.372 9.523c-12.8 19.2 0 25.6 0 25.6 7.068 7.953 17.324 12.938 28.745 12.938 1.146 0 2.28-0.050 3.401-0.149l-0.145 0.010h166.4l12.8-19.2c19.397-48.441 38.726-88.446 60.375-126.973l-2.775 5.373c51.2-115.2 89.6-128 108.8-121.6s25.6 19.2 19.2 147.2c0.106 2.18 0.167 4.734 0.167 7.303 0 22.804-4.771 44.494-13.368 64.126l0.402-1.029c-10.933 13.539-26.581 22.89-44.414 25.553l-0.386 0.047c-6.4 0 6.4 19.2 25.6 25.6 28.871 9.070 62.071 14.295 96.49 14.295 11.095 0 22.064-0.543 32.88-1.604l-1.371 0.109h64c51.2-12.8 32-57.6 32-172.8s-6.4-89.6 19.2-102.4 38.4 0 108.8 115.2c19.332 33.568 38.673 73.587 55.267 115.004l2.333 6.596c1.818 7.976 6.418 14.662 12.702 19.134l0.098 0.066h172.8c44.8 6.4 51.2-12.8 51.2-12.8s-12.8-76.8-76.8-160z" />
<glyph unicode="&#x7a;" glyph-name="snapchat" data-tags="snapchat" d="M774.4 768c12.174-31.065 19.229-67.035 19.229-104.654 0-1.458-0.011-2.913-0.032-4.366l0.003 0.22c0-38.4 0-76.8-6.4-121.6h19.2l64 19.2c19.2 0 51.2-12.8 51.2-38.4s-128-51.2-128-102.4c0.545-9.389 2.848-18.113 6.582-26.029l-0.182 0.429c30.716-70.706 84.529-126.589 151.733-159.183l1.867-0.817 51.2-12.8c10.604 0 19.2-8.596 19.2-19.2v0c0-44.8-108.8-57.6-134.4-64s0-64-38.4-64h-121.6c-76.8-12.8-102.4-89.6-224-89.6s-147.2 76.8-217.6 89.6h-108.8c-32 0-25.6 44.8-38.4 64s-140.8 6.4-140.8 51.2c0 10.604 8.596 19.2 19.2 19.2v0l51.2 12.8c69.071 33.411 122.883 89.294 152.815 157.977l0.785 2.023c3.552 7.487 5.855 16.211 6.391 25.41l0.009 0.19c0 51.2-128 44.8-128 102.4s25.6 38.4 51.2 38.4l64-19.2h19.2c0 38.4-6.4 76.8-6.4 121.6-0.274 4.75-0.43 10.307-0.43 15.899 0 38.013 7.204 74.342 20.322 107.699l-0.692-1.998c44.427 95.838 139.81 161.116 250.439 161.116 8.717 0 17.34-0.405 25.85-1.198l-1.090 0.082c1.128 0.017 2.458 0.027 3.792 0.027 109.081 0 202.986-64.975 245.124-158.332l0.684-1.694z" />
<glyph unicode="&#xe91a;" glyph-name="skipe" data-tags="skipe" d="M768-64c-57.921 0-111.348 19.235-154.244 51.667l0.644-0.467-102.4-6.4c-258.027 0-467.2 209.173-467.2 467.2v0c-0.275 6.155-0.432 13.373-0.432 20.627 0 28.885 2.485 57.189 7.253 84.711l-0.421-2.938c-31.965 42.252-51.2 95.679-51.2 153.6 0 141.385 114.615 256 256 256 57.921 0 111.348-19.235 154.244-51.667l-0.644 0.467 102.4 6.4c258.027 0 467.2-209.173 467.2-467.2v0c-0.735-36.678-5.359-71.898-13.48-105.758l0.68 3.358c32.001-42.266 51.259-95.723 51.259-153.679 0-139.155-111.028-252.378-249.331-255.915l-0.328-0.007zM576 512l-70.4 19.2c-51.2 12.8-89.6 19.2-89.6 57.6s38.4 51.2 96 51.2 108.8-76.8 172.8-76.8c38.881 0 70.4 31.519 70.4 70.4v0c0 76.8-128 128-256 128s-249.6-51.2-249.6-185.6 76.8-147.2 172.8-172.8l96-25.6c57.6-12.8 96-19.2 96-64s-38.4-57.6-96-57.6-128 102.4-198.4 102.4c-2.027 0.228-4.377 0.358-6.758 0.358-35.346 0-64-28.654-64-64 0-2.38 0.13-4.731 0.383-7.044l-0.025 0.286c0-83.2 128-147.2 275.2-147.2s256 64 256 198.4-108.8 153.6-204.8 172.8z" />
<glyph unicode="&#xeace;" glyph-name="stumbleupon" data-tags="stumbleupon, brand, social" d="M512 640c-35.2 0-64-28.8-64-64v-256c0-105.8-86.2-192-192-192s-192 86.2-192 192v128h128v-128c0-35.2 28.8-64 64-64s64 28.8 64 64v256c0 105.8 86.2 192 192 192s192-86.2 192-178v-62l-82-24-46 24v62c0 21.2-28.8 50-64 50zM960 320c0-105.8-86.2-192-192-192s-192 86.2-192 206v124l46-24 82 24v-124c0-49.2 28.8-78 64-78s64 28.8 64 64v128h128v-128z" />
</font>
</defs>
</svg>
